<svg xmlns="http://www.w3.org/2000/svg" xmlns:xlink="http://www.w3.org/1999/xlink" height="800px" width="800px" version="1.1" id="Layer_1" viewBox="0 0 511.999 511.999" xml:space="preserve">
<path style="fill: #6366f1;" d="M436.645,124.383c-0.1-6.979-5.893-12.691-12.875-12.691H88.226c-6.981,0-12.774,5.711-12.875,12.691  l-4.564,317.298c-0.1,6.979-1.276,18.297-2.611,25.148l-4.794,24.584c-1.334,6.852,3.283,12.458,10.264,12.458h364.709  c6.981,0,11.598-5.606,10.263-12.458l-4.793-24.584c-1.335-6.852-2.511-18.168-2.612-25.148L436.645,124.383z"/>
<path style="fill: #f59e0b;" d="M286.109,111.692L72.461,325.341l-0.729,50.645l264.294-264.294H286.109z M136.099,111.692  l-61.45,61.449l-0.728,50.645l112.093-112.095h-49.915V111.692z M438.586,259.236L193.952,503.87h49.917l195.427-195.426  L438.586,259.236z M441.21,441.682l-0.498-34.563l-96.751,96.751h49.917l48.311-48.31  C441.643,450.595,441.266,445.492,441.21,441.682z M436.645,124.383c-0.051-3.589-1.616-6.836-4.066-9.15L65.073,482.738  l-1.692,8.675c-1.334,6.852,3.283,12.458,10.264,12.458h20.212l343.309-343.309L436.645,124.383z"/>
<path style="opacity:0.1;enable-background:new    ;" d="M448.617,491.413l-4.793-24.584c-1.335-6.852-2.511-18.168-2.612-25.148  H70.787c-0.1,6.979-1.276,18.297-2.611,25.148l-4.794,24.584c-1.334,6.852,3.283,12.458,10.264,12.458h364.709  C445.335,503.87,449.952,498.264,448.617,491.413z"/>
<g>
	<circle style="fill:#FFFFFF;" cx="355.51" cy="168.054" r="28.03"/>
	<circle style="fill:#FFFFFF;" cx="156.488" cy="168.054" r="28.03"/>
</g>
<path style="fill: #6366f1;" d="M456.596,489.856l-4.793-24.584c-1.242-6.369-2.37-17.227-2.463-23.709l-4.566-317.298  c-0.164-11.416-9.585-20.704-21.004-20.704h-60.213C361.403,46.092,313.986,0,255.999,0S150.594,46.092,148.44,103.563H88.226  c-11.417,0-20.84,9.287-21.004,20.703l-4.564,317.298c-0.093,6.481-1.221,17.339-2.462,23.709l-4.794,24.585  c-1.102,5.658,0.254,11.316,3.72,15.522c3.466,4.207,8.76,6.619,14.524,6.619h364.709c5.764,0,11.058-2.413,14.524-6.62  C456.343,501.173,457.699,495.515,456.596,489.856z M255.999,16.259c49.021,0,89.137,38.802,91.281,87.304H164.718  C166.861,55.061,206.977,16.259,255.999,16.259z M440.329,495.042c-0.372,0.451-1.073,0.699-1.975,0.699H73.644  c-0.902,0-1.603-0.248-1.975-0.699s-0.481-1.188-0.309-2.072l4.794-24.585c1.441-7.389,2.653-19.068,2.761-26.586L83.48,124.5  c0.037-2.535,2.21-4.678,4.747-4.678h60.128v48.237c0,4.49,3.64,8.13,8.13,8.13c4.49,0,8.13-3.64,8.13-8.13v-48.237h182.769v48.237  c0,4.49,3.64,8.13,8.13,8.13c4.49,0,8.13-3.64,8.13-8.13v-48.237h60.128c2.536,0,4.71,2.142,4.747,4.678l4.566,317.298  c0.107,7.52,1.32,19.199,2.761,26.588l4.793,24.584C440.809,493.855,440.701,494.591,440.329,495.042z"/>
</svg>
